<?xml version="1.0" encoding="utf-8"?>
<!-- Generator: Adobe Illustrator 24.3.0, SVG Export Plug-In . SVG Version: 6.00 Build 0)  -->
<svg version="1.1" id="Слой_1" xmlns="http://www.w3.org/2000/svg" xmlns:xlink="http://www.w3.org/1999/xlink" x="0px" y="0px"
	 viewBox="0 0 1080 383.03" style="enable-background:new 0 0 1080 383.03;" xml:space="preserve">
<style type="text/css">
	.st0{fill:#D02217;}
	.st1{fill:#EC6D06;}
</style>
<path class="st0" d="M273.09,301.46h-54.21c-3.02,0-5.46-2.44-5.46-5.46v-75.36c-11.13,4.64-32.74,12.18-57.7,13.26
	c-32.14,1.4-57.72-6.1-73.99-21.68c-13.66-13.08-20.58-31.14-20.58-53.67v-71.8c0-3.02,2.44-5.46,5.46-5.46h54.2
	c3.02,0,5.46,2.44,5.46,5.46v68.8c0,15.06,9.98,24.42,26.05,24.42c30.19,0,53.64-11.44,61.11-15.57V86.74
	c0-3.02,2.44-5.46,5.46-5.46h54.21c3.02,0,5.46,2.44,5.46,5.46V296C278.55,299.01,276.11,301.46,273.09,301.46z"/>
<path class="st0" d="M426.78,301.46h-55.79c-1.88,0-3.62-0.96-4.62-2.55c-1-1.59-1.11-3.58-0.3-5.27l24.03-50.08l-88.43-154.1
	c-0.97-1.69-0.97-3.77,0.01-5.45c0.98-1.69,2.78-2.72,4.72-2.72h62.32c2,0,3.83,1.09,4.79,2.84l49.55,90.65l38.59-90.18
	c0.86-2.01,2.83-3.31,5.02-3.31h56.36c1.86,0,3.59,0.95,4.6,2.51c1,1.57,1.14,3.54,0.36,5.23l-96.25,209.25
	C430.85,300.22,428.91,301.46,426.78,301.46z"/>
<path class="st0" d="M768.43,243.21h-30.44l-70.98-158.7c-0.11-0.25-0.25-0.5-0.4-0.73c0,0,0-0.01,0-0.01
	c-0.01-0.01-0.02-0.02-0.02-0.03c-0.23-0.35-0.49-0.65-0.79-0.94c-0.04-0.04-0.07-0.08-0.11-0.11c-0.29-0.26-0.61-0.49-0.96-0.69
	c-0.06-0.04-0.13-0.07-0.19-0.11c-0.34-0.18-0.71-0.33-1.09-0.43c-0.06-0.02-0.12-0.03-0.19-0.04c-0.4-0.09-0.81-0.16-1.24-0.16
	h-56.36c-0.42,0-0.84,0.06-1.24,0.16c-0.06,0.01-0.12,0.02-0.19,0.04c-0.38,0.1-0.74,0.25-1.09,0.43c-0.07,0.03-0.13,0.07-0.19,0.11
	c-0.34,0.2-0.66,0.42-0.96,0.69c-0.04,0.04-0.07,0.08-0.11,0.11c-0.29,0.28-0.56,0.59-0.79,0.94c-0.01,0.01-0.02,0.02-0.02,0.03
	c0,0,0,0.01,0,0.01c-0.15,0.23-0.28,0.47-0.39,0.73l-70.98,158.7h-28.98c-3.01,0-5.46,2.44-5.46,5.46V296
	c0,3.02,2.44,5.46,5.46,5.46h267.71c3.02,0,5.46-2.44,5.46-5.46v-47.33C773.89,245.66,771.44,243.21,768.43,243.21z M633.85,152.3
	l37.47,90.91h-74.95L633.85,152.3z"/>
<path class="st0" d="M896.24,305.82c-63.11,0-114.45-51.34-114.45-114.45S833.14,76.92,896.24,76.92V305.82z"/>
<g>
	<path class="st1" d="M1019.37,191.65c0,10.2-8.26,18.46-18.46,18.46c-0.45,0-0.89-0.02-1.33-0.06c-0.14,0-0.27,0-0.39-0.02
		l-3.9-0.8l-86.47-17.57l-0.04-0.02l0.04-0.02l86.47-17.57l3.9-0.8c0.12-0.02,0.26-0.02,0.39-0.02c0.44-0.05,0.88-0.06,1.33-0.06
		C1011.1,173.19,1019.37,181.45,1019.37,191.65"/>
	<path class="st1" d="M1000.9,251.71c0,10.2-8.28,18.46-18.48,18.46c-5.29,0-10.05-2.22-13.4-5.77l-0.01-0.02l-1.53-1.84
		l-58.62-70.79l-0.03-0.08l81.06,43.12l2.37,1.27l0.06,0.03C997.47,239.38,1000.9,245.15,1000.9,251.71"/>
	<path class="st1" d="M1000.9,131.59c0,6.57-3.43,12.33-8.58,15.61l-0.06,0.03l-2.29,1.24l-0.08,0.03l-81.06,43.12l0.03-0.08
		l58.62-70.79l0.08-0.09l0.07-0.12l1.28-1.53l0.03-0.05c0.02-0.03,0.05-0.04,0.09-0.07c3.34-3.55,8.1-5.77,13.39-5.77
		C992.62,113.13,1000.9,121.39,1000.9,131.59"/>
	<path class="st1" d="M944.61,101.49v0.02l-0.74,1.87v0.02l-35.01,88.15l-0.03,0.08l-0.02,0.02v-0.05l-0.18-97.14l0.05,0.02
		c0.53-9.07,7.72-16.56,17.01-17.28c10.17-0.77,19.05,6.84,19.82,17.01C945.72,96.75,945.39,99.21,944.61,101.49"/>
	<path class="st1" d="M945.51,289.11c-0.77,10.17-9.65,17.78-19.82,17.01c-9.29-0.71-16.49-8.22-17.01-17.28l-0.05,0.02l0.18-97.14
		v-0.05l0.02,0.02l0.03,0.07l35.01,88.15v0.02l0.74,1.87v0.02C945.39,284.09,945.72,286.55,945.51,289.11"/>
</g>
</svg>
