<svg width="146" height="75" viewBox="0 0 146 75" fill="none" xmlns="http://www.w3.org/2000/svg">
<path d="M1.14917 24.9195H30.6834C33.7144 17.8227 38.7656 11.7722 45.2093 7.51965C51.653 3.26711 59.2052 1 66.9276 1C74.65 1 82.2022 3.26711 88.6459 7.51965C95.0896 11.7722 100.141 17.8227 103.172 24.9195H132.598V74H1.14917V24.9195Z" fill="#FFFAD2" stroke="black" stroke-width="1.18493"/>
<path d="M1.14917 24.9195H30.6834C33.7144 17.8227 38.7656 11.7722 45.2093 7.51965C51.653 3.26711 59.2052 1 66.9276 1C74.65 1 82.2022 3.26711 88.6459 7.51965C95.0896 11.7722 100.141 17.8227 103.172 24.9195H132.598V74H1.14917V24.9195Z" fill="white" stroke="black" stroke-width="1.18493"/>
<path d="M47.9828 23.6689C47.9828 23.9174 48.1693 23.6689 48.2356 23.7932C48.8573 24.1037 49.4541 24.5758 50.0758 24.729C50.2333 24.4474 49.6075 24.1037 50.0758 24.0126C51.1409 24.6048 52.5625 24.5427 53.3914 25.6359C53.8929 26.166 54.1416 26.9156 54.8296 27.2924C54.5188 26.3896 54.3281 25.3916 53.9261 24.4847H54.1416C55.2358 25.2053 56.5496 26.1702 56.7983 27.5119L56.9848 28.7542C57.5352 29.3497 58.1673 29.8642 58.8623 30.2823L58.9535 30.1912C58.767 29.5949 58.539 29.0027 58.2986 28.4105C58.767 28.4395 59.1275 28.8246 59.5171 29.189C60.487 30.0172 60.7356 31.1229 61.204 32.1582C61.6598 32.661 62.2609 33.0098 62.924 33.1562L62.9861 33.0941C62.5717 32.3114 61.9251 31.624 61.8298 30.7212C61.892 30.5349 62.1075 30.626 62.2442 30.6881C63.2522 31.8297 64.3836 32.856 65.6179 33.7484C65.8405 33.827 66.0833 33.827 66.3059 33.7484C66.5836 33.3757 65.8376 33.2473 65.8044 32.8746C65.9288 32.7173 66.1153 32.8746 66.2728 32.9367C66.7743 33.2183 67.4001 33.7153 67.9306 33.1852C68.2414 33.061 68.5523 32.622 68.8673 32.9036C68.8051 33.2804 67.8684 33.4668 68.3658 33.8436C69.4931 34.03 70.0858 32.7504 70.8525 32.1251L72.5684 30.4686L72.788 30.5018C72.6927 31.4998 72.1 32.3735 71.4742 33.2183C71.7229 33.4047 71.9757 33.0941 72.2244 33.032C73.3185 32.8415 73.5382 31.6571 73.7869 30.7834C74.3336 29.6221 75.1735 28.6231 76.2239 27.8846C76.2958 27.8482 76.3743 27.8265 76.4547 27.8208C76.5351 27.8151 76.6159 27.8255 76.6922 27.8514C76.9119 28.1662 76.5347 28.4146 76.4435 28.7252C76.1973 29.1335 76.0471 29.5922 76.0042 30.0669C76.5679 29.57 77.347 29.0068 77.5999 28.3194C77.9729 27.3504 77.8485 26.1991 78.6609 25.4206L80.3519 23.9464C80.5094 23.9464 80.6337 24.0085 80.6337 24.1948L80.3519 25.9424L80.385 25.9755C81.4129 24.5717 83.0375 24.3853 84.3804 23.5695C84.4467 23.6027 84.5379 23.5405 84.571 23.6358C84.3623 23.9417 84.2327 24.2946 84.1939 24.6628L84.3224 24.7249C85.3424 24.1693 86.4071 23.6997 87.5054 23.3211L87.8204 23.3832C87.7582 23.8221 87.2567 24.1659 86.8837 24.4764C86.1916 25.197 85.0394 24.758 84.2892 25.3047C84.4467 25.6484 84.8819 25.5863 85.1969 25.6815C85.5118 25.7767 86.2247 25.6152 86.2579 26.0542C85.0394 26.7085 83.8209 27.4912 82.3205 27.3338C81.6035 27.3007 80.758 26.7085 80.1654 27.3628C79.546 27.64 78.9923 28.0451 78.5407 28.5513L78.6982 28.6424C79.5703 28.5513 80.4496 28.5513 81.3217 28.6424C81.4129 28.7087 81.3507 28.8329 81.2595 28.895C79.8504 29.5203 78.8225 31.0153 77.0735 30.862C76.6964 30.8289 76.1949 30.6136 75.884 30.8952L74.3837 32.2286C74.3547 32.415 74.6033 32.4481 74.7277 32.415C75.7265 32.3528 76.6632 32.5392 77.604 32.3528L77.633 32.415C76.7544 33.4419 75.511 34.1873 74.0397 33.885C73.3227 33.885 72.6968 33.5123 71.9674 33.6366C70.9064 33.9803 69.8744 34.5393 68.6269 34.1956C67.9057 34.1666 67.1556 33.8561 66.4385 34.1956C65.3195 34.3446 64.1809 34.2166 63.1229 33.8229C62.294 33.4088 61.4651 33.9803 60.6362 33.9803C59.3555 34.1045 58.4478 33.4171 57.5112 32.8249L57.6355 32.7297C58.5722 32.7007 59.4798 32.4812 60.4497 32.6344C60.4787 32.6054 60.574 32.6054 60.574 32.5433C59.7617 31.6903 58.9327 30.6301 57.6894 30.9863C56.9608 31.0008 56.2386 30.8482 55.5783 30.5402C54.9181 30.2322 54.3372 29.7771 53.8805 29.2097C54.0181 29.094 54.1939 29.0335 54.3737 29.0399C55.1529 28.9447 55.7166 29.1932 56.446 29.1021C56.5082 28.9778 56.3548 28.8495 56.2263 28.7584L54.1541 27.3214C53.5324 27.2261 52.9977 27.5699 52.405 27.6361C50.8135 27.8846 49.4707 27.164 48.2605 26.4476C48.3226 26.1991 48.6749 26.2281 48.9153 26.166C49.5035 26.1258 50.0774 25.9666 50.6022 25.6981C50.2913 25.0438 49.2883 25.5448 48.6957 25.284C47.8667 24.5965 46.8845 24.0955 46.0721 23.3501C46.0721 23.2879 46.1012 23.2217 46.1633 23.2217C46.7895 23.2749 47.4034 23.4258 47.9828 23.6689ZM86.7262 23.7932C86.1772 23.9494 85.6731 24.2332 85.2549 24.6214C85.2922 24.6835 85.3834 24.6835 85.4455 24.7125C85.7813 24.7242 86.1139 24.643 86.4064 24.4779C86.699 24.3127 86.9401 24.07 87.1034 23.7766C87.0371 23.6399 86.8505 23.7932 86.7262 23.7932ZM47.6388 23.9174L47.6098 24.0458C48.1403 24.4599 48.6086 25.2301 49.2966 24.9817C48.8228 24.5172 48.2585 24.1549 47.6388 23.9174ZM82.9712 24.6669H82.8179C82.1009 24.7912 81.2554 25.3254 81.0979 26.1039C81.7859 25.9797 82.2832 25.2757 82.9091 24.8616L82.9712 24.6669ZM51.4725 24.9195V25.0106C52.1274 25.5738 52.7159 26.2281 53.4702 26.5097L53.5448 26.431C53.3742 26.0115 53.0899 25.6478 52.7239 25.3807C52.3578 25.1137 51.9244 24.954 51.4725 24.9195ZM78.4122 27.164C78.5987 27.1019 78.694 26.9156 78.7894 26.7913C78.9717 26.2613 79.4442 25.8554 79.4442 25.2922C79.1061 25.4671 78.8275 25.7383 78.6437 26.0716C78.46 26.4048 78.3794 26.785 78.4122 27.164ZM79.9416 25.3544C79.4201 25.9211 79.0445 26.6061 78.8474 27.3504C79.2133 27.0655 79.5118 26.7035 79.7219 26.2902C79.8835 26.0169 80.07 25.6359 79.9457 25.3544H79.9416ZM81.7859 26.1039C81.6906 26.166 81.7527 26.2613 81.8149 26.2902C82.5029 26.0708 83.2531 26.137 83.8457 25.8761C83.5068 25.7645 83.1478 25.727 82.7931 25.7663C82.4383 25.8056 82.0963 25.9208 81.79 26.1039H81.7859ZM55.5425 26.0708L55.5093 26.1991L56.1973 27.4787H56.2885C56.2798 27.2032 56.2085 26.9333 56.0799 26.6893C55.9514 26.4454 55.769 26.2339 55.5466 26.0708H55.5425ZM54.9788 26.1039L55.041 26.5429C55.204 27.0523 55.507 27.5058 55.9155 27.8514C55.7756 27.1928 55.4524 26.587 54.983 26.1039H54.9788ZM50.8343 26.1991C51.3916 26.4088 51.9675 26.5654 52.5542 26.6671C52.6786 26.634 52.8982 26.6961 52.8361 26.5097C52.3014 26.0418 51.4725 26.0708 50.826 26.1991H50.8343ZM82.2667 26.3855C82.047 26.4807 81.703 26.4807 81.6408 26.7582C81.8952 26.915 82.1792 27.018 82.475 27.0607C82.7709 27.1034 83.0724 27.085 83.3608 27.0067C83.9777 26.8352 84.5588 26.5547 85.0767 26.1784C84.1649 26.0418 83.1329 26.2613 82.2584 26.3855H82.2667ZM50.2084 26.3855C50.0219 26.5429 49.7111 26.4476 49.5536 26.605C50.2416 27.3214 51.2736 27.4787 52.2393 27.3835C52.4921 27.3214 52.8651 27.2883 52.9604 27.0398C52.1066 26.605 51.1078 26.5718 50.2001 26.3855H50.2084ZM75.8633 28.63C75.0945 29.1956 74.4988 29.9643 74.1433 30.8496C74.1433 31.0981 73.9568 31.4418 74.1433 31.5992C75.0852 30.8597 75.7283 29.8053 75.9545 28.63H75.8633ZM77.2683 29.8185C78.0475 29.6653 78.9261 29.5369 79.5188 28.9903C79.1027 28.9204 78.6756 28.96 78.2796 29.1052C77.8835 29.2505 77.5321 29.4963 77.26 29.8185H77.2683ZM55.6461 29.3837L55.4886 29.57C56.2527 29.9443 57.0784 30.1772 57.9256 30.2574C57.3868 29.57 56.388 29.6653 55.6378 29.3837H55.6461ZM77.2683 30.2119C77.2352 30.2119 77.2061 30.3361 77.2683 30.3692C77.7154 30.4004 78.1636 30.3276 78.5778 30.1566C78.992 29.9856 79.3609 29.721 79.6556 29.3837C78.8262 29.5669 78.0219 29.8491 77.26 30.2243L77.2683 30.2119ZM59.3016 29.6197C59.3324 30.0102 59.4622 30.3864 59.6788 30.713C59.9274 30.9904 60.0518 31.4625 60.4289 31.5412C60.4064 31.1554 60.2915 30.7806 60.0939 30.4484C59.8962 30.1162 59.6217 29.8363 59.2933 29.6321L59.3016 29.6197ZM55.2399 29.8061L55.1778 29.9013C55.4139 30.1559 55.6989 30.3604 56.0157 30.5026C56.3325 30.6449 56.6748 30.7221 57.0221 30.7295C57.2086 30.6674 57.5194 30.7295 57.5816 30.51C56.8273 30.1953 56.0315 30.1001 55.2316 29.8185L55.2399 29.8061ZM62.6173 31.6778C62.728 32.042 62.9066 32.382 63.1436 32.68C63.5829 33.0941 64.0844 33.8022 64.7724 33.678C64.1673 32.9077 63.326 32.3487 62.609 31.6903L62.6173 31.6778ZM71.7685 31.8973C71.1285 32.3299 70.5677 32.8692 70.1106 33.4916L70.0816 33.678C70.4299 33.5765 70.7438 33.3817 70.9893 33.1148C71.2918 32.7835 71.727 32.3777 71.7809 31.9097L71.7685 31.8973ZM74.5785 32.7255C74.0633 32.8009 73.5662 32.9693 73.1113 33.2225C74.048 33.6614 75.4861 33.8188 76.2985 33.0071C76.3185 32.9937 76.3354 32.9761 76.3481 32.9556C76.3608 32.9352 76.369 32.9122 76.3722 32.8883C76.3753 32.8644 76.3733 32.8401 76.3663 32.8171C76.3593 32.794 76.3475 32.7727 76.3316 32.7545C75.7472 32.6751 75.1546 32.6751 74.5702 32.7545L74.5785 32.7255ZM61.5438 33.2846C60.6374 32.8953 59.6323 32.7969 58.6675 33.003C58.6675 33.3136 59.0115 33.2846 59.198 33.4419C59.5649 33.6392 59.9771 33.7373 60.3937 33.7264C60.8102 33.7155 61.2167 33.596 61.5728 33.3798L61.5438 33.2846Z" fill="black"/>
<path d="M67.4209 19.2792C68.4197 19.3745 69.717 19.565 70.5956 20.1696C71.6566 20.9523 72.6265 22.0455 73.9693 22.0165C74.3837 21.797 74.3133 21.2339 74.7526 21.0806C75.996 21.1096 77.0611 20.7659 78.1885 20.5133C78.3219 20.5109 78.4523 20.5527 78.5595 20.6321C78.6667 20.7115 78.7446 20.824 78.7811 20.9523C78.8818 22.2253 78.596 23.4991 77.9608 24.6073C77.3257 25.7154 76.3708 26.6064 75.221 27.1639C74.533 27.578 73.7206 27.6029 72.9373 27.8224C72.2272 28.4398 71.4644 28.994 70.6578 29.4788C70.3469 30.071 71.2505 30.2325 71.2505 30.7501C71.2505 31.2678 70.0858 31.2843 70.0858 31.2843H63.5333C63.3136 31.1932 63.0028 31.098 62.9738 30.8164C62.9738 30.2242 63.9394 30.1621 63.7239 29.5741C62.5024 28.8717 61.4207 27.9509 60.5326 26.8575C59.0492 26.3618 57.8169 25.3088 57.0968 23.9214C56.512 22.7192 55.5459 21.7438 54.3489 21.1469C54.0298 20.6665 55.298 20.5506 54.7634 20.1116C55.0452 19.7389 55.5923 20.0205 55.9819 20.0826C57.1382 20.3932 58.0542 21.4865 58.7919 22.4265C59.169 22.8406 59.2602 22.2981 59.6208 22.1739C60.5285 22.0828 61.4361 22.0207 62.1531 21.4575C63.3095 20.1447 64.8885 19.594 66.5132 19.2834V19.0266C66.3317 18.9238 66.1895 18.7638 66.1085 18.5717C66.0276 18.3795 66.0126 18.1661 66.0658 17.9645C66.119 17.7629 66.2375 17.5846 66.4028 17.4574C66.5681 17.3302 66.7708 17.2612 66.9795 17.2612C67.1881 17.2612 67.3909 17.3302 67.5562 17.4574C67.7214 17.5846 67.8399 17.7629 67.8932 17.9645C67.9464 18.1661 67.9314 18.3795 67.8504 18.5717C67.7695 18.7638 67.6272 18.9238 67.4457 19.0266L67.4209 19.2792ZM55.4389 20.3973C55.4697 20.524 55.4518 20.6576 55.3889 20.7718C55.326 20.886 55.2226 20.9725 55.0991 21.0144C55.0659 21.267 55.3477 21.296 55.5135 21.4533C57.3579 22.4845 57.449 24.5426 59.1359 25.698C59.4509 25.8885 59.7617 26.228 60.1347 26.1369C59.857 25.201 59.6042 24.261 59.3058 23.3251L58.8085 22.9814C57.6604 22.2029 57.0014 20.4595 55.4389 20.3973ZM70.952 20.9688H63.6618L61.8962 22.2484H72.3653L70.952 20.9688ZM77.7989 21.0144C76.8896 21.2982 75.9414 21.438 74.9889 21.4285L74.8314 21.5858C74.7692 21.8674 74.4874 22.2112 74.7692 22.4596C75.0179 22.4928 75.051 22.149 75.2375 22.0455L77.3098 21.7349C77.4174 21.7569 77.5173 21.8067 77.5995 21.8793C77.6817 21.952 77.7433 22.045 77.7782 22.149C77.7346 22.9602 77.4889 23.7476 77.0633 24.4398C76.6377 25.1319 76.0457 25.7067 75.3411 26.1121C74.7775 26.551 73.7165 26.3316 73.5921 27.1722C74.5288 27.2053 75.279 26.7581 76.0291 26.2363C76.7563 25.6721 77.3351 24.9396 77.7156 24.102C78.0961 23.2644 78.267 22.3468 78.2133 21.4285C78.1553 21.2339 78.0931 20.9523 77.8113 21.0144H77.7989ZM76.97 22.1697L75.5318 22.5135L75.0966 23.2009C74.9149 24.0762 74.6527 24.9329 74.3133 25.7601L74.3755 25.9464C74.5951 26.0086 74.7899 25.8553 75.0013 25.7932C75.6424 25.4577 76.1897 24.9676 76.5935 24.3675C76.9973 23.7673 77.2449 23.076 77.314 22.3561C77.2874 22.2961 77.2428 22.2459 77.1863 22.2125C77.1299 22.1791 77.0644 22.1641 76.999 22.1697H76.97ZM64.7352 22.7951C64.2337 22.7951 63.3924 22.7951 62.9613 22.7951C62.9613 25.3046 64.2337 29.6279 66.078 29.6279C64.8637 27.3958 64.7352 22.7951 64.7352 22.7951ZM59.9026 22.7951C59.998 24.4805 60.6404 26.4848 61.9749 27.6402C61.2577 26.1213 60.876 24.4661 60.8559 22.7868L59.9026 22.7951ZM61.2786 22.7951C61.2786 25.2052 62.0495 28.0543 64.0762 28.9777C63.1052 27.052 62.6093 24.9222 62.6298 22.7661L61.2786 22.7951ZM66.9691 18.7119C67.0698 18.7111 67.1679 18.6805 67.2512 18.6241C67.3345 18.5676 67.3992 18.4878 67.4371 18.3946C67.4751 18.3015 67.4846 18.1992 67.4644 18.1007C67.4443 18.0021 67.3954 17.9118 67.324 17.8409C67.2525 17.7701 67.1617 17.722 67.0629 17.7027C66.9641 17.6834 66.8618 17.6937 66.7689 17.7324C66.676 17.7711 66.5967 17.8363 66.5408 17.92C66.485 18.0037 66.4552 18.102 66.4552 18.2026C66.4541 18.3369 66.5062 18.4663 66.6001 18.5625C66.694 18.6587 66.8222 18.7139 66.9567 18.7161L66.9691 18.7119ZM70.3511 20.5961C69.3936 19.9874 68.2822 19.6641 67.1473 19.6641C66.0125 19.6641 64.9011 19.9874 63.9436 20.5961H70.3511ZM65.1372 22.7868C65.3071 25.0685 65.5517 27.284 66.3267 29.0978C66.451 29.4084 66.6376 29.8598 67.1556 29.8474C67.6737 29.8349 67.8726 29.4084 67.9845 29.0978C68.7679 27.284 69.0041 25.0685 69.174 22.7868H65.1372ZM68.2664 29.6279C70.1066 29.6279 71.3831 25.3046 71.3831 22.7951C70.9686 22.7951 70.1066 22.7951 69.6092 22.7951C69.5968 22.7951 69.4517 27.3958 68.2539 29.632L68.2664 29.6279ZM73.4761 22.7785C73.4559 24.4578 73.0743 26.113 72.3571 27.6319C73.6999 26.4765 74.3464 24.4722 74.4293 22.7868L73.4761 22.7785ZM71.7105 22.7785C71.731 24.9347 71.235 27.0645 70.264 28.9902C72.2949 28.0667 73.0616 25.2176 73.0616 22.8075L71.7105 22.7785ZM70.5376 30.9282C70.5592 30.9282 70.5805 30.9239 70.6004 30.9155C70.6203 30.9071 70.6383 30.8949 70.6534 30.8794C70.6684 30.864 70.6803 30.8457 70.6881 30.8256C70.696 30.8056 70.6998 30.7841 70.6992 30.7626C70.6998 30.741 70.696 30.7196 70.6881 30.6995C70.6803 30.6794 70.6684 30.6611 70.6534 30.6457C70.6383 30.6302 70.6203 30.618 70.6004 30.6096C70.5805 30.6012 70.5592 30.5969 70.5376 30.5969H63.84C63.796 30.5969 63.7538 30.6144 63.7227 30.6454C63.6917 30.6765 63.6742 30.7186 63.6742 30.7626C63.6742 30.8065 63.6917 30.8486 63.7227 30.8797C63.7538 30.9108 63.796 30.9282 63.84 30.9282H70.5376ZM64.3788 29.7438C64.0845 29.7438 63.9643 30.3526 63.9643 30.3526L65.7796 30.3277C65.3372 30.0789 64.867 29.883 64.3788 29.7438ZM68.5233 30.3277L70.3428 30.3526C70.3428 30.3526 70.206 29.7438 69.9283 29.7438C69.4435 29.8814 68.9762 30.0745 68.5358 30.3195L68.5233 30.3277Z" fill="black"/>
<path d="M1.14917 24.9195H30.6834C33.7144 17.8227 38.7656 11.7722 45.2093 7.51965C51.653 3.26711 59.2052 1 66.9276 1C74.65 1 82.2022 3.26711 88.6459 7.51965C95.0896 11.7722 100.141 17.8227 103.172 24.9195H132.598V74H1.14917V24.9195Z" stroke="black" stroke-width="1.67688"/>
<path d="M137.891 31.682C137.883 30.928 138.099 30.1885 138.512 29.5574C138.925 28.9263 139.517 28.4321 140.211 28.1375C140.906 27.8428 141.673 27.7611 142.414 27.9025C143.155 28.044 143.838 28.4023 144.375 28.932C144.912 29.4618 145.28 30.139 145.431 30.8778C145.582 31.6166 145.511 32.3836 145.225 33.0815C144.939 33.7795 144.452 34.3769 143.826 34.7979C143.2 35.219 142.463 35.4446 141.708 35.4463C141.209 35.4552 140.712 35.3642 140.248 35.1788C139.785 34.9933 139.363 34.7172 139.007 34.3666C138.651 34.0159 138.37 33.5978 138.178 33.1368C137.986 32.6758 137.889 32.1812 137.891 31.682ZM141.708 34.821C142.33 34.835 142.943 34.6635 143.467 34.3285C143.991 33.9935 144.404 33.5101 144.652 32.9399C144.9 32.3697 144.973 31.7385 144.861 31.1269C144.748 30.5153 144.456 29.9509 144.022 29.5057C143.588 29.0604 143.03 28.7546 142.421 28.627C141.812 28.4995 141.179 28.556 140.602 28.7895C140.025 29.023 139.531 29.4228 139.183 29.9379C138.834 30.4531 138.647 31.0602 138.645 31.682C138.631 32.0914 138.7 32.4993 138.848 32.8813C138.996 33.2633 139.22 33.6114 139.506 33.9047C139.792 34.1979 140.135 34.4303 140.513 34.5878C140.892 34.7453 141.298 34.8246 141.708 34.821ZM140.917 33.8561H140.258V29.5204H141.915C142.943 29.5204 143.449 29.9014 143.449 30.7627C143.458 30.9158 143.436 31.0691 143.383 31.2132C143.331 31.3573 143.25 31.4892 143.144 31.6009C143.039 31.7125 142.912 31.8016 142.772 31.8625C142.631 31.9235 142.479 31.9551 142.326 31.9554L143.569 33.8644H142.831L141.687 31.9844H140.933L140.917 33.8561ZM141.7 31.4212C142.255 31.4212 142.757 31.3839 142.757 30.7172C142.757 30.1788 142.268 30.0794 141.812 30.0794H140.917V31.4212H141.7Z" fill="#1D1D1B"/>
<path d="M1.64246 31.8144H35.7232C37.5091 24.9065 41.5416 18.7874 47.187 14.4186C52.8323 10.0499 59.7705 7.6792 66.9111 7.6792C74.0517 7.6792 80.9899 10.0499 86.6352 14.4186C92.2806 18.7874 96.3131 24.9065 98.099 31.8144H132.416" stroke="black" stroke-width="4.64978"/>
<path d="M1 66.2644H132.383" stroke="#1D1D1B" stroke-width="4.64978"/>
<path d="M91.1443 65.5562H42.5907" stroke="white" stroke-width="7.99826"/>
<path d="M47.6554 67.7222H49.2386V68.8899H46.3374V63.5728H47.6595L47.6554 67.7222Z" fill="black"/>
<path d="M54.1334 64.7363C54.5082 64.7393 54.8673 64.8872 55.1354 65.1489C55.4035 65.4106 55.5598 65.7658 55.5715 66.1402C55.5902 66.3398 55.5669 66.5412 55.5032 66.7313C55.4394 66.9214 55.3367 67.0962 55.2016 67.2444C55.0664 67.3927 54.9018 67.511 54.7182 67.5921C54.5346 67.6731 54.3361 67.7149 54.1355 67.7149C53.9348 67.7149 53.7363 67.6731 53.5527 67.5921C53.3691 67.511 53.2045 67.3927 53.0693 67.2444C52.9342 67.0962 52.8315 66.9214 52.7677 66.7313C52.704 66.5412 52.6807 66.3398 52.6994 66.1402C52.7111 65.7666 52.8668 65.4119 53.1341 65.1503C53.4013 64.8887 53.7593 64.7404 54.1334 64.7363ZM54.1334 63.3946C53.7688 63.3891 53.4067 63.4557 53.0679 63.5904C52.7291 63.7252 52.4202 63.9255 52.1591 64.1798C51.898 64.4342 51.6898 64.7376 51.5463 65.0726C51.4029 65.4075 51.3271 65.7675 51.3234 66.1319C51.3234 67.8546 52.5046 69.0679 54.1334 69.0679C55.7622 69.0679 56.9475 67.8546 56.9475 66.1319C56.9432 65.7673 56.8669 65.4073 56.7231 65.0722C56.5792 64.7372 56.3705 64.4339 56.1091 64.1796C55.8477 63.9253 55.5386 63.7251 55.1995 63.5904C54.8605 63.4556 54.4982 63.3891 54.1334 63.3946Z" fill="black" stroke="white" stroke-width="0.00528985"/>
<path d="M59.4923 63.5728H60.8144L63.2349 66.8235V63.5728H64.557V68.8899H63.2349L60.8144 65.6309V68.8899H59.4923V63.5728Z" fill="black" stroke="white" stroke-width="0.00528985"/>
<path d="M68.9709 64.7405H69.2942C69.6899 64.7405 70.0694 64.8976 70.3492 65.1772C70.629 65.4568 70.7862 65.8359 70.7862 66.2313C70.7862 66.6267 70.629 67.0059 70.3492 67.2855C70.0694 67.5651 69.6899 67.7221 69.2942 67.7221H68.9999L68.9709 64.7405ZM67.6488 68.8816H69.5221C70.2278 68.8816 70.9046 68.6015 71.4036 68.103C71.9026 67.6044 72.1829 66.9282 72.1829 66.223C72.1829 65.5179 71.9026 64.8417 71.4036 64.3431C70.9046 63.8446 70.2278 63.5645 69.5221 63.5645H67.6364L67.6488 68.8816Z" fill="black" stroke="white" stroke-width="0.00528985"/>
<path d="M76.9699 64.7363C77.3447 64.7393 77.7038 64.8872 77.9719 65.1489C78.24 65.4106 78.3963 65.7658 78.4081 66.1402C78.4267 66.3398 78.4034 66.5412 78.3397 66.7313C78.276 66.9214 78.1733 67.0962 78.0381 67.2444C77.9029 67.3927 77.7383 67.511 77.5547 67.5921C77.3712 67.6731 77.1727 67.7149 76.972 67.7149C76.7713 67.7149 76.5728 67.6731 76.3893 67.5921C76.2057 67.511 76.041 67.3927 75.9059 67.2444C75.7707 67.0962 75.668 66.9214 75.6043 66.7313C75.5406 66.5412 75.5173 66.3398 75.5359 66.1402C75.5476 65.7666 75.7034 65.4119 75.9706 65.1503C76.2378 64.8887 76.5959 64.7404 76.9699 64.7363ZM76.9699 63.3946C76.6053 63.3891 76.2432 63.4557 75.9044 63.5904C75.5656 63.7252 75.2568 63.9255 74.9957 64.1798C74.7346 64.4342 74.5263 64.7376 74.3829 65.0726C74.2395 65.4075 74.1637 65.7675 74.1599 66.1319C74.1599 67.8546 75.3411 69.0679 76.9699 69.0679C78.5987 69.0679 79.7841 67.8546 79.7841 66.1319C79.7798 65.7673 79.7035 65.4073 79.5596 65.0722C79.4157 64.7372 79.2071 64.4339 78.9457 64.1796C78.6842 63.9253 78.3751 63.7251 78.0361 63.5904C77.6971 63.4556 77.3347 63.3891 76.9699 63.3946Z" fill="black" stroke="white" stroke-width="0.00528985"/>
<path d="M82.333 63.5728H83.6551L86.0756 66.8235V63.5728H87.3977V68.8899H86.0756L83.6551 65.6309V68.8899H82.333V63.5728Z" fill="black" stroke="white" stroke-width="0.00528985"/>
<path d="M69.4103 56.0234H68.5068L63.2514 39.5583L63.2141 39.4424H62.5925L62.551 39.5501L57.9671 51.9734C56.7237 55.2863 56.4005 55.8329 55.3685 56.0441L55.24 56.069V56.7605H59.4799V56.0648L59.3431 56.0441C58.452 55.9033 57.9008 55.249 58.1495 54.5119C58.2945 54.0771 58.3443 53.8369 58.6841 52.8555L59.0986 50.9091H63.4255L65.0419 56.0317H63.6659V56.7522H69.5843V56.0317L69.4103 56.0234ZM66.8614 56.0234H65.5931L61.7843 43.4551L62.3562 42.0554L66.8614 56.0234ZM63.1893 50.1844H59.3473L61.6143 44.9749L63.1893 50.1844Z" fill="black" stroke="black" stroke-width="0.137536"/>
<path d="M63.3592 40.515L57.6107 56.0856L56.5414 55.688L62.2899 40.1216L63.3592 40.515Z" fill="black"/>
<path d="M63.728 50.1223H59.3638V51.1038H63.728V50.1223Z" fill="black"/>
<path d="M66.7867 56.6031L62.1738 42.134L63.9021 41.5874L68.515 56.0523L66.7867 56.6031Z" fill="black"/>
<path d="M65.0999 56.4044L61.0341 43.6622L61.9003 43.3889L65.9619 56.1311L65.0999 56.4044Z" fill="black"/>
<path d="M128.785 56.0026H127.886L122.631 39.5334L122.593 39.4175H121.967L121.93 39.5252L117.346 51.9485C116.103 55.2614 115.78 55.8121 114.748 56.0192L114.615 56.0482V56.7356H118.859V56.0399L118.722 56.0192C117.831 55.8784 117.28 55.2283 117.524 54.487C117.67 54.0522 117.719 53.812 118.063 52.8305L118.478 50.8842H122.805L124.421 56.0109H123.041V56.7273H128.959V56.0109L128.785 56.0026ZM126.24 56.0026H124.972L121.163 43.4095L121.731 42.0098L126.24 56.0026ZM122.568 50.1678H118.726L120.998 44.9542L122.568 50.1678Z" fill="black" stroke="black" stroke-width="0.137536"/>
<path d="M122.734 40.4901L116.986 56.0607L115.921 55.6631L121.669 40.0967L122.734 40.4901Z" fill="black"/>
<path d="M123.103 50.0974H118.739V51.0789H123.103V50.0974Z" fill="black"/>
<path d="M126.162 56.5782L121.549 42.1091L123.277 41.5625L127.894 56.0274L126.162 56.5782Z" fill="black"/>
<path d="M124.475 56.3795L120.413 43.6373L121.275 43.364L125.341 56.1062L124.475 56.3795Z" fill="black"/>
<path d="M19.5594 56.0524H18.6476L13.3923 39.5832L13.3426 39.4673H12.7209L12.6794 39.575L8.09553 51.9983C6.85216 55.3112 6.52889 55.862 5.49689 56.069L5.36841 56.098V56.7854H9.61245V56.0897L9.47567 56.069C8.58459 55.9282 8.03337 55.2781 8.28204 54.5409C8.4271 54.102 8.47683 53.8618 8.81669 52.8845L9.23115 50.9382H13.5539L15.1703 56.0649H13.7902V56.7813H19.7086V56.0649L19.5594 56.0524ZM17.0105 56.0524H15.734L11.9251 43.4842L12.5136 42.0762L17.0105 56.0524ZM13.3426 50.2093H9.49225L11.7593 44.9998L13.3426 50.2093Z" fill="black" stroke="black" stroke-width="0.137536"/>
<path d="M13.5001 40.5396L7.75155 56.1102L6.68225 55.7127L12.4308 40.1462L13.5001 40.5396Z" fill="black"/>
<path d="M13.8689 50.1472H9.50464V51.1287H13.8689V50.1472Z" fill="black"/>
<path d="M16.9276 56.628L12.3147 42.1589L14.043 41.6123L18.6559 56.0814L16.9276 56.628Z" fill="black"/>
<path d="M15.2407 56.4291L11.1749 43.6869L12.0411 43.4136L16.1028 56.1558L15.2407 56.4291Z" fill="black"/>
<path d="M35.5242 39.637H29.8917V40.3575H30.9362V47.5506H26.1906V40.3575H27.2434V39.637H21.3912V40.3575H22.4315V56.0441H21.441V56.7646H27.3221V56.0441H26.1906V48.2753H30.9569V56.0896H29.7135H29.5187L29.4856 56.2056V56.7563H36.1169V56.0399L36.0133 56.454H34.6953V40.3575H35.7232V39.637H35.5242ZM32.7183 40.3575V56.0441H31.7361V40.3575H32.7183ZM24.2137 40.3575V56.0441H23.2273V40.3575H24.2137Z" fill="black" stroke="black" stroke-width="0.137536"/>
<path d="M26.2239 40.2251H23.9817V56.4831H26.2239V40.2251Z" fill="black"/>
<path d="M34.7285 40.2251H32.4863V56.4831H34.7285V40.2251Z" fill="black"/>
<path d="M36.1708 55.9902H29.4152V56.8267H36.1708V55.9902Z" fill="black"/>
<path d="M27.6828 55.9863H20.9271V56.8228H27.6828V55.9863Z" fill="black"/>
<path d="M36.1708 39.5833H29.4152V40.4198H36.1708V39.5833Z" fill="black"/>
<path d="M27.6786 39.5791H20.923V40.4156H27.6786V39.5791Z" fill="black"/>
<path d="M31.247 47.4927H25.2167V48.5487H31.247V47.4927Z" fill="black"/>
<path d="M40.8002 44.2377L41.1111 45.0245L44.9448 54.9094L44.9862 55.017H45.4919L45.5333 54.9052L49.193 44.7636V56.0358H47.7424V56.7522H54.0836V56.0358H52.633V42.7842C52.633 40.6888 52.8568 40.4693 53.9012 40.3616H54.0504V39.6287H50.2789L50.2374 39.7405L46.5819 49.8614L42.6611 39.7363L42.6197 39.6287H38.0607V40.3368H38.2223C39.0885 40.3823 39.3579 40.7757 39.847 41.7365M50.7679 40.3451H50.8259V56.0358H49.9183V42.7842L50.7679 40.3451ZM45.2556 53.6298L40.7381 41.9974C40.5313 41.3996 40.2275 40.84 39.8387 40.3409H41.0406L45.6701 52.4081L45.2556 53.6298Z" fill="black"/>
<path d="M40.8002 44.2377L41.1111 45.0245L44.9448 54.9094L44.9862 55.017H45.4919L45.5333 54.9052L49.193 44.7636V56.0358H47.7424V56.7522H54.0836V56.0358H52.633V42.7842C52.633 40.6888 52.8568 40.4693 53.9012 40.3616H54.0504V39.6287H50.2789L50.2374 39.7405L46.5819 49.8614L42.6611 39.7363L42.6197 39.6287H38.0607V40.3368H38.2223C39.0885 40.3823 39.3579 40.7757 39.847 41.7365M50.7679 40.3451H50.8259V56.0358H49.9183V42.7842L50.7679 40.3451ZM45.2556 53.6298L40.7381 41.9974C40.5313 41.3996 40.2275 40.84 39.8387 40.3409H41.0406L45.6701 52.4081L45.2556 53.6298Z" stroke="black" stroke-width="0.137536"/>
<path d="M39.9051 51.5593C39.8471 53.0252 39.9341 54.3628 39.6481 55.0254C39.5405 55.2849 39.3632 55.5097 39.1357 55.6749C38.9082 55.84 38.6395 55.9392 38.3592 55.9613L38.2224 55.9861V56.6611H42.7814V55.9654H42.6364C41.2189 55.7666 40.8625 55.2407 40.8625 51.6835V43.687" fill="black"/>
<path d="M39.9051 51.5593C39.8471 53.0252 39.9341 54.3628 39.6481 55.0254C39.5405 55.2849 39.3632 55.5097 39.1357 55.6749C38.9082 55.84 38.6395 55.9392 38.3592 55.9613L38.2224 55.9861V56.6611H42.7814V55.9654H42.6364C41.2189 55.7666 40.8625 55.2407 40.8625 51.6835V43.687" stroke="black" stroke-width="0.137536"/>
<path d="M39.8387 41.7449L40.1496 42.5482L40.1413 51.6463" fill="black"/>
<path d="M39.8387 41.7449L40.1496 42.5482L40.1413 51.6463" stroke="black" stroke-width="0.137536"/>
<path d="M39.8304 41.7656L40.908 42.4613V55.8496H39.8304V41.7656Z" fill="black"/>
<path d="M52.6828 40.1714H50.6271V56.2638H52.6828V40.1714Z" fill="black"/>
<path d="M40.8003 40.2996L42.6736 39.575L47.013 50.7684L45.6163 52.7313L40.8003 40.2996Z" fill="black"/>
<path d="M81.5622 41.0532C80.4514 39.9724 79.3904 39.6245 77.2021 39.6245H70.8029V40.3658H72.1954V56.0316H70.8236V56.748H76.8208C78.8931 56.748 79.9085 56.512 80.9902 55.7666C83.0045 54.4166 84.3059 51.3977 84.3059 48.0765C84.281 45.2233 83.2904 42.6641 81.5622 41.0532ZM73.7331 40.3658V56.0316H72.871V40.3658H73.7331ZM76.4685 56.0316H75.4448V40.3658H76.5638C78.2216 40.3658 78.9055 40.6267 79.5272 41.5294C80.381 42.7718 80.7954 44.9169 80.7954 48.1262C80.7954 50.8801 80.4846 52.9506 79.867 54.2923C79.2495 55.6341 78.3874 56.0316 76.4685 56.0316ZM80.1116 55.2034C81.0358 53.8492 81.471 51.5426 81.471 48.0931C81.471 44.9997 81.0855 42.8007 80.2981 41.43C80.6259 41.7662 80.9125 42.1402 81.1518 42.544C81.9435 43.8567 82.4532 46.1012 82.4532 48.267C82.4532 51.4391 81.5539 54.0107 80.1116 55.2117V55.2034Z" fill="#1D1D1B" stroke="#1D1D1B" stroke-width="0.137536"/>
<path d="M75.4987 40.2251H73.4968V56.3672H75.4987V40.2251Z" fill="#1D1D1B"/>
<path d="M101.514 44.4408L101.473 39.8358V39.6826H89.6025V39.8565L89.6564 44.4615V44.6271H90.4397V43.6043C90.4397 41.3598 91.4386 40.4032 93.7139 40.4032V56.0897H91.7577V56.8103H99.4252V56.0897H97.4772V40.3866C98.588 40.3866 99.3837 40.6144 99.8976 41.0906C100.412 41.5668 100.727 42.4116 100.727 43.5753V44.5981H101.51L101.514 44.4408ZM95.4878 40.3866V56.0731H94.518V40.3866H95.4878Z" fill="black" stroke="black" stroke-width="0.137536"/>
<path d="M90.4564 39.6162H89.5529V44.6684H90.4564V39.6162Z" fill="black"/>
<path d="M101.634 39.6162H100.677V44.6684H101.634V39.6162Z" fill="black"/>
<path d="M95.9728 40.2002H95.1812V56.4541H95.9728V40.2002Z" fill="black"/>
<path d="M113.591 52.6527H113.044V52.8184C113.019 54.2264 112.907 54.7316 112.514 55.1705C111.913 55.7958 110.901 56.0485 109.016 56.0485H108V48.2797H108.829C109.886 48.2797 110.562 48.3418 110.901 48.669C111.146 48.9133 111.241 49.3398 111.241 50.1971V51.1992H111.958V44.8923H111.241V46.0435C111.26 46.2315 111.242 46.4214 111.186 46.6021C111.131 46.7827 111.039 46.9505 110.918 47.0954C110.595 47.4184 109.973 47.5592 108.895 47.5592H108.033V40.3619H108.796C110.549 40.3619 111.672 40.6104 112.331 41.1487C112.891 41.6208 113.077 42.0722 113.077 43.8404V44.3125H113.799V44.1386L113.761 39.8111V39.6414H103.056V40.3619H104.523V56.0485H103.064V56.769H103.234L113.595 56.7317H113.761V56.5619V52.8349V52.6652L113.591 52.6527ZM106.181 40.3868V56.0485H105.24V40.3868H106.181Z" fill="black" stroke="black" stroke-width="0.137536"/>
<path d="M107.855 40.2705H105.907V56.2014H107.855V40.2705Z" fill="black"/>
</svg>
