<svg width="40" height="40" viewBox="0 0 40 40" fill="none" xmlns="http://www.w3.org/2000/svg">
<path d="M22.056 0.00270485C23.5154 -0.00289541 24.9748 0.0117723 26.4338 0.0467035L26.8218 0.060703C27.2698 0.0767024 27.7117 0.0967017 28.2457 0.120701C30.3736 0.220697 31.8255 0.556686 33.0995 1.05067C34.4194 1.55865 35.5313 2.24663 36.6433 3.35859C37.66 4.35777 38.4468 5.56641 38.9492 6.90047C39.4431 8.17443 39.7791 9.62838 39.8791 11.7563C39.9031 12.2883 39.9231 12.7323 39.9391 13.1803L39.9511 13.5682C39.9866 15.0266 40.002 16.4853 39.9971 17.9441L39.9991 19.436V22.056C40.004 23.5154 39.9887 24.9748 39.9531 26.4338L39.9411 26.8218C39.9251 27.2698 39.9051 27.7118 39.8811 28.2457C39.7811 30.3737 39.4411 31.8256 38.9492 33.0996C38.4485 34.4351 37.6614 35.6447 36.6433 36.6435C35.6432 37.6601 34.434 38.4469 33.0995 38.9494C31.8255 39.4434 30.3736 39.7794 28.2457 39.8793C27.7117 39.9033 27.2698 39.9233 26.8218 39.9393L26.4338 39.9513C24.9748 39.9869 23.5154 40.0022 22.056 39.9973L20.5641 39.9993H17.9462C16.4868 40.0043 15.0274 39.9889 13.5685 39.9533L13.1805 39.9413C12.7057 39.9241 12.2311 39.9041 11.7565 39.8813C9.62866 39.7814 8.17673 39.4414 6.9008 38.9494C5.56624 38.4481 4.35741 37.6611 3.35898 36.6435C2.34112 35.6441 1.55352 34.4347 1.0511 33.0996C0.557126 31.8256 0.221143 30.3737 0.121148 28.2457C0.0988746 27.7712 0.0788755 27.2965 0.0611508 26.8218L0.0511516 26.4338C0.0142806 24.9748 -0.00238697 23.5154 0.00115394 22.056V17.9441C-0.0044277 16.4853 0.0102398 15.0266 0.0451518 13.5682L0.0591511 13.1803C0.0751502 12.7323 0.0951491 12.2883 0.119148 11.7563C0.219143 9.62638 0.555125 8.17643 1.0491 6.90047C1.55182 5.56576 2.34096 4.35745 3.36098 3.36059C4.35872 2.34213 5.56679 1.5538 6.9008 1.05067C8.17673 0.556686 9.62666 0.220697 11.7565 0.120701L13.1805 0.060703L13.5685 0.0507036C15.0267 0.0138504 16.4855 -0.00281746 17.9442 0.000705061L22.056 0.00270485ZM20.0001 10.0024C18.6752 9.98363 17.3598 10.2284 16.1303 10.7225C14.9008 11.2165 13.7817 11.9501 12.8382 12.8804C11.8946 13.8107 11.1454 14.9193 10.634 16.1417C10.1226 17.3641 9.85923 18.676 9.85923 20.001C9.85923 21.3261 10.1226 22.638 10.634 23.8604C11.1454 25.0828 11.8946 26.1914 12.8382 27.1217C13.7817 28.052 14.9008 28.7855 16.1303 29.2796C17.3598 29.7736 18.6752 30.0184 20.0001 29.9997C22.6522 29.9997 25.1956 28.9462 27.0708 27.0709C28.9461 25.1956 29.9996 22.6521 29.9996 20C29.9996 17.3479 28.9461 14.8045 27.0708 12.9292C25.1956 11.0539 22.6522 10.0024 20.0001 10.0024ZM20.0001 14.0022C20.7971 13.9875 21.589 14.1318 22.3296 14.4266C23.0702 14.7214 23.7446 15.1609 24.3135 15.7193C24.8823 16.2776 25.3342 16.9438 25.6427 17.6788C25.9512 18.4138 26.1102 19.2029 26.1103 20C26.1105 20.7971 25.9518 21.5863 25.6435 22.3214C25.3352 23.0565 24.8836 23.7228 24.3149 24.2814C23.7462 24.8399 23.0719 25.2796 22.3315 25.5746C21.591 25.8697 20.7991 26.0142 20.0021 25.9998C18.4109 25.9998 16.8849 25.3677 15.7597 24.2425C14.6345 23.1173 14.0024 21.5913 14.0024 20C14.0024 18.4088 14.6345 16.8827 15.7597 15.7575C16.8849 14.6323 18.4109 14.0002 20.0021 14.0002L20.0001 14.0022ZM30.4996 7.00247C29.8544 7.02829 29.2442 7.30276 28.7969 7.76838C28.3495 8.23401 28.0997 8.85467 28.0997 9.50038C28.0997 10.1461 28.3495 10.7668 28.7969 11.2324C29.2442 11.698 29.8544 11.9725 30.4996 11.9983C31.1626 11.9983 31.7985 11.7349 32.2673 11.2661C32.7361 10.7973 32.9995 10.1614 32.9995 9.49838C32.9995 8.83536 32.7361 8.1995 32.2673 7.73068C31.7985 7.26185 31.1626 6.99847 30.4996 6.99847V7.00247Z" fill="white"/>
</svg>
